<svg width="400" height="400" viewBox="0 0 400 400" xmlns="http://www.w3.org/2000/svg">
  <!-- Background -->
  <rect width="400" height="400" fill="url(#bgGradient)"/>
  
  <defs>
    <linearGradient id="bgGradient" x1="0%" y1="0%" x2="100%" y2="100%">
      <stop offset="0%" style="stop-color:#f1f5f9;stop-opacity:1" />
      <stop offset="100%" style="stop-color:#e2e8f0;stop-opacity:1" />
    </linearGradient>
    
    <linearGradient id="capGradient" x1="0%" y1="0%" x2="100%" y2="100%">
      <stop offset="0%" style="stop-color:#1e40af;stop-opacity:1" />
      <stop offset="50%" style="stop-color:#1d4ed8;stop-opacity:1" />
      <stop offset="100%" style="stop-color:#1e3a8a;stop-opacity:1" />
    </linearGradient>
    
    <linearGradient id="billGradient" x1="0%" y1="0%" x2="100%" y2="100%">
      <stop offset="0%" style="stop-color:#1e3a8a;stop-opacity:1" />
      <stop offset="100%" style="stop-color:#172554;stop-opacity:1" />
    </linearGradient>
    
    <filter id="shadow" x="-20%" y="-20%" width="140%" height="140%">
      <feDropShadow dx="2" dy="6" stdDeviation="4" flood-color="#000000" flood-opacity="0.2"/>
    </filter>
    
    <filter id="fabric" x="0%" y="0%" width="100%" height="100%">
      <feTurbulence baseFrequency="0.7" numOctaves="3" seed="2" type="fractalNoise"/>
      <feColorMatrix type="saturate" values="0"/>
      <feComponentTransfer>
        <feFuncA type="discrete" tableValues="0.05 0.07 0.05 0.08"/>
      </feComponentTransfer>
      <feComposite in2="SourceGraphic" operator="multiply"/>
    </filter>
  </defs>

  <!-- Cap crown -->
  <ellipse cx="200" cy="180" rx="130" ry="70" fill="url(#capGradient)" filter="url(#shadow)"/>
  
  <!-- Fabric texture overlay -->
  <ellipse cx="200" cy="180" rx="130" ry="70" fill="url(#capGradient)" filter="url(#fabric)" opacity="0.4"/>

  <!-- Bill/visor -->
  <path d="M70 180 Q30 200 20 230 Q25 250 70 240 L70 180 Z" 
        fill="url(#billGradient)" 
        stroke="#172554" 
        stroke-width="1"
        filter="url(#shadow)"/>

  <!-- Bill stitching -->
  <path d="M70 190 Q35 205 28 225" fill="none" stroke="#1e40af" stroke-width="0.5" opacity="0.7"/>
  <path d="M70 200 Q40 215 32 230" fill="none" stroke="#1e40af" stroke-width="0.5" opacity="0.7"/>

  <!-- Crown panels -->
  <path d="M130 130 Q200 110 270 130" fill="none" stroke="#1e3a8a" stroke-width="1" opacity="0.8"/>
  <path d="M140 150 Q200 130 260 150" fill="none" stroke="#1e3a8a" stroke-width="1" opacity="0.8"/>
  <path d="M150 170 Q200 150 250 170" fill="none" stroke="#1e3a8a" stroke-width="1" opacity="0.8"/>

  <!-- Eyelets -->
  <circle cx="150" cy="160" r="3" fill="#172554" stroke="#1e40af" stroke-width="0.5"/>
  <circle cx="250" cy="160" r="3" fill="#172554" stroke="#1e40af" stroke-width="0.5"/>
  <circle cx="120" cy="175" r="3" fill="#172554" stroke="#1e40af" stroke-width="0.5"/>
  <circle cx="280" cy="175" r="3" fill="#172554" stroke="#1e40af" stroke-width="0.5"/>

  <!-- Center button -->
  <circle cx="200" cy="140" r="10" fill="#172554" stroke="#1e40af" stroke-width="2"/>
  <circle cx="200" cy="140" r="6" fill="#1e40af"/>

  <!-- Adjustment strap -->
  <rect x="310" y="175" width="45" height="12" rx="6" fill="#1e40af" stroke="#172554" stroke-width="1"/>
  <rect x="315" y="178" width="8" height="6" rx="1" fill="#172554"/>
  <rect x="340" y="178" width="8" height="6" rx="1" fill="#172554"/>

  <!-- Buckle -->
  <rect x="325" y="176" width="12" height="10" rx="1" fill="none" stroke="#94a3b8" stroke-width="1"/>

  <!-- Embroidery area highlight -->
  <ellipse cx="200" cy="160" rx="35" ry="15" 
           fill="none" 
           stroke="#60a5fa" 
           stroke-width="1" 
           stroke-dasharray="2,2" 
           opacity="0.6"/>

  <!-- Product details -->
  <text x="200" y="280" text-anchor="middle" font-family="system-ui, sans-serif" font-size="16" font-weight="600" fill="#1e293b">Baseball Cap</text>
  <text x="200" y="300" text-anchor="middle" font-family="system-ui, sans-serif" font-size="12" fill="#64748b">Structured 6-Panel</text>
  <text x="200" y="315" text-anchor="middle" font-family="system-ui, sans-serif" font-size="11" fill="#94a3b8">Adjustable Fit</text>

  <!-- Size indicator -->
  <text x="330" y="200" font-family="system-ui, sans-serif" font-size="8" font-weight="bold" fill="#cbd5e1">ONE SIZE</text>

</svg>