<svg viewBox="0 0 400 400" xmlns="http://www.w3.org/2000/svg">
  <defs>
    <linearGradient id="hoodieGradient" x1="0%" y1="0%" x2="100%" y2="100%">
      <stop offset="0%" style="stop-color:#6b7280;stop-opacity:1" />
      <stop offset="100%" style="stop-color:#4b5563;stop-opacity:1" />
    </linearGradient>
  </defs>
  
  <!-- Hoodie body -->
  <path d="M70 130 L70 110 Q70 90 90 90 L110 90 Q130 70 150 70 L250 70 Q270 70 290 90 L310 90 Q330 90 330 110 L330 130 L360 150 L360 190 L330 170 L330 360 Q330 380 310 380 L90 380 Q70 380 70 360 L70 170 L40 190 L40 150 Z" 
        fill="url(#hoodieGradient)" 
        stroke="#374151" 
        stroke-width="2"/>
  
  <!-- Hood -->
  <path d="M150 70 Q200 40 250 70 Q280 50 320 70 Q340 90 320 110 Q280 90 250 90 L150 90 Q120 90 80 110 Q60 90 80 70 Q120 50 150 70 Z" 
        fill="url(#hoodieGradient)" 
        stroke="#374151" 
        stroke-width="2"/>
  
  <!-- Kangaroo pocket -->
  <path d="M130 220 Q200 230 270 220 Q280 240 270 260 Q200 270 130 260 Q120 240 130 220 Z" 
        fill="none" 
        stroke="#374151" 
        stroke-width="2"/>
  
  <!-- Drawstrings -->
  <circle cx="180" cy="100" r="3" fill="#374151"/>
  <circle cx="220" cy="100" r="3" fill="#374151"/>
  <path d="M180 100 Q190 110 200 100 Q210 110 220 100" fill="none" stroke="#374151" stroke-width="2"/>
  
  <!-- Ribbing -->
  <path d="M70 360 L330 360" stroke="#374151" stroke-width="3"/>
  <path d="M70 130 L40 150" stroke="#374151" stroke-width="3"/>
  <path d="M330 130 L360 150" stroke="#374151" stroke-width="3"/>
  
  <!-- Text label -->
  <text x="200" y="320" text-anchor="middle" font-family="Arial, sans-serif" font-size="16" fill="#6c757d">Pullover Hoodie</text>
  <text x="200" y="340" text-anchor="middle" font-family="Arial, sans-serif" font-size="12" fill="#adb5bd">Cotton Blend</text>
</svg>