<svg width="400" height="400" viewBox="0 0 400 400" xmlns="http://www.w3.org/2000/svg">
  <!-- Background -->
  <rect width="400" height="400" fill="url(#bgGradient)"/>
  
  <defs>
    <linearGradient id="bgGradient" x1="0%" y1="0%" x2="100%" y2="100%">
      <stop offset="0%" style="stop-color:#f8fafc;stop-opacity:1" />
      <stop offset="100%" style="stop-color:#e2e8f0;stop-opacity:1" />
    </linearGradient>
    
    <linearGradient id="shirtGradient" x1="0%" y1="0%" x2="100%" y2="100%">
      <stop offset="0%" style="stop-color:#ffffff;stop-opacity:1" />
      <stop offset="50%" style="stop-color:#f8fafc;stop-opacity:1" />
      <stop offset="100%" style="stop-color:#f1f5f9;stop-opacity:1" />
    </linearGradient>
    
    <filter id="shadow" x="-20%" y="-20%" width="140%" height="140%">
      <feDropShadow dx="4" dy="8" stdDeviation="6" flood-color="#000000" flood-opacity="0.15"/>
    </filter>
    
    <filter id="fabric" x="0%" y="0%" width="100%" height="100%">
      <feTurbulence baseFrequency="0.9" numOctaves="4" seed="1" type="fractalNoise"/>
      <feColorMatrix type="saturate" values="0"/>
      <feComponentTransfer>
        <feFuncA type="discrete" tableValues="0.02 0.03 0.02 0.04"/>
      </feComponentTransfer>
      <feComposite in2="SourceGraphic" operator="multiply"/>
    </filter>
  </defs>

  <!-- T-shirt body -->
  <path d="M90 120 L90 100 Q90 85 105 85 L125 85 Q145 65 165 65 L235 65 Q255 65 275 85 L295 85 Q310 85 310 100 L310 120 L340 135 L340 175 L310 165 L310 340 Q310 355 295 355 L105 355 Q90 355 90 340 L90 165 L60 175 L60 135 Z" 
        fill="url(#shirtGradient)" 
        stroke="#e2e8f0" 
        stroke-width="1"
        filter="url(#shadow)"/>
  
  <!-- Fabric texture overlay -->
  <path d="M90 120 L90 100 Q90 85 105 85 L125 85 Q145 65 165 65 L235 65 Q255 65 275 85 L295 85 Q310 85 310 100 L310 120 L340 135 L340 175 L310 165 L310 340 Q310 355 295 355 L105 355 Q90 355 90 340 L90 165 L60 175 L60 135 Z" 
        fill="url(#shirtGradient)" 
        filter="url(#fabric)"
        opacity="0.3"/>

  <!-- Neck opening -->
  <path d="M165 65 Q200 85 235 65" 
        fill="none" 
        stroke="#cbd5e1" 
        stroke-width="2"/>

  <!-- Sleeve seams -->
  <path d="M60 135 L90 120" stroke="#e2e8f0" stroke-width="1.5"/>
  <path d="M340 135 L310 120" stroke="#e2e8f0" stroke-width="1.5"/>

  <!-- Side seams -->
  <path d="M90 120 L90 340" stroke="#e2e8f0" stroke-width="1" opacity="0.6"/>
  <path d="M310 120 L310 340" stroke="#e2e8f0" stroke-width="1" opacity="0.6"/>

  <!-- Bottom hem -->
  <path d="M105 355 L295 355" stroke="#cbd5e1" stroke-width="2"/>

  <!-- Embroidery area highlight -->
  <rect x="150" y="140" width="100" height="30" rx="4" 
        fill="none" 
        stroke="#3b82f6" 
        stroke-width="1" 
        stroke-dasharray="3,2" 
        opacity="0.4"/>

  <!-- Product details -->
  <text x="200" y="250" text-anchor="middle" font-family="system-ui, sans-serif" font-size="16" font-weight="600" fill="#1e293b">Premium T-Shirt</text>
  <text x="200" y="270" text-anchor="middle" font-family="system-ui, sans-serif" font-size="12" fill="#64748b">100% Preshrunk Cotton</text>
  <text x="200" y="285" text-anchor="middle" font-family="system-ui, sans-serif" font-size="11" fill="#94a3b8">Embroidery Ready</text>

  <!-- Size tag -->
  <rect x="285" y="320" width="20" height="15" rx="2" fill="#374151"/>
  <text x="295" y="330" text-anchor="middle" font-family="system-ui, sans-serif" font-size="8" font-weight="bold" fill="white">M</text>

  <!-- Brand tag simulation -->
  <rect x="190" y="340" width="20" height="8" rx="1" fill="#dc2626"/>
  <text x="200" y="346" text-anchor="middle" font-family="system-ui, sans-serif" font-size="6" font-weight="bold" fill="white">PREMIUM</text>

</svg>